g circle
v -13.8 -13.846 0
v -1.813166 -13.846 0
v 1.813167 -13.846 0
v 13.8 -13.846 0
v -13.8 -1.813166 0
v -1.813166 -1.813166 0
v 1.813167 -1.813166 0
v 13.8 -1.813166 0
v -13.8 1.813167 0
v -1.813166 1.813167 0
v 1.813167 1.813167 0
v 13.8 1.813167 0
v -13.8 13.846 0
v -1.813166 13.846 0
v 1.813167 13.846 0
v 13.8 13.846 0
v -1.813166 1.813167 0
v 1.813167 -1.813166 0
v -1.813166 -1.813166 0
v 1.813167 1.813167 0
vt 0.01 0.01
vt 0.4227434 0.01
vt 0.5772567 0.01
vt 0.99 0.01
vt 0.01 0.4227434
vt 0.4227434 0.4227434
vt 0.5772567 0.4227434
vt 0.99 0.4227434
vt 0.01 0.5772567
vt 0.4227434 0.5772567
vt 0.9899999 0.9899999
vt 0.99 0.5772567
vt 0.01 0.99
vt 0.4227434 0.99
vt 0.5772567 0.99
vt 0.99 0.99
vt 0.01 0.9899999
vt 0.9899999 0.01
vt 0.01 0.01
vt 0.5772567 0.5772567
vn 0 0 1
vn 0 0 1
vn 0 0 1
vn 0 0 1
vn 0 0 1
vn 0 0 1
vn 0 0 1
vn 0 0 1
vn 0 0 1
vn 0 0 1
vn 0 0 1
vn 0 0 1
vn 0 0 1
vn 0 0 1
vn 0 0 1
vn 0 0 1
vn 0 0 1
vn 0 0 1
vn 0 0 1
vn 0 0 1
g circle_0
f 2/2/2 6/6/6 5/5/5
f 1/1/1 2/2/2 5/5/5
f 2/2/2 3/3/3 6/6/6
f 3/3/3 7/7/7 6/6/6
f 3/3/3 4/4/4 7/7/7
f 4/4/4 8/8/8 7/7/7
f 5/5/5 6/6/6 9/9/9
f 6/6/6 10/10/10 9/9/9
f 7/7/7 8/8/8 20/20/20
f 8/8/8 12/12/12 20/20/20
f 9/9/9 10/10/10 13/13/13
f 10/10/10 14/14/14 13/13/13
f 10/10/10 20/20/20 14/14/14
f 20/20/20 15/15/15 14/14/14
f 20/20/20 12/12/12 15/15/15
f 12/12/12 16/16/16 15/15/15
g circle_1
f 18/18/18 11/11/11 17/17/17
f 19/19/19 18/18/18 17/17/17
