g Cube Instance
v -0.5 -0.5 0.5
v 0.5 -0.5 0.5
v -0.5 0.5 0.5
v 0.5 0.5 0.5
v -0.5 0.5 -0.5
v 0.5 0.5 -0.5
v -0.5 -0.5 -0.5
v 0.5 -0.5 -0.5
v -0.5 0.5 0.5
v 0.5 0.5 0.5
v -0.5 0.5 -0.5
v 0.5 0.5 -0.5
v -0.5 -0.5 -0.5
v 0.5 -0.5 0.5
v 0.5 -0.5 -0.5
v -0.5 -0.5 0.5
v 0.5 -0.5 0.5
v 0.5 0.5 -0.5
v 0.5 -0.5 -0.5
v 0.5 0.5 0.5
v -0.5 -0.5 -0.5
v -0.5 0.5 0.5
v -0.5 -0.5 0.5
v -0.5 0.5 -0.5
vt -0.1250008 0.2004525
vt 0.1250002 0.2004525
vt -0.1250008 0.5995475
vt 0.1250002 0.5995475
vt -5.623912 -0.1250003
vt -5.623912 0.1250008
vt 0.1250009 0.2004525
vt -0.1250002 0.2004525
vt -0.1240878 -0.1250009
vt -0.1240878 0.1250001
vt 0.1250009 0.5995475
vt -0.1250002 0.5995475
vt -5.623912 0.1250002
vt -0.1240878 -0.1250002
vt -5.623912 -0.1250009
vt -0.1240878 0.1250008
vt -0.1240878 0.2004525
vt -5.623912 0.5995475
vt -5.623912 0.2004525
vt -0.1240878 0.5995475
vt 5.623912 0.2004525
vt 0.1240878 0.5995475
vt 0.1240878 0.2004525
vt 5.623912 0.5995475
vn 0 0 1
vn 0 0 1
vn 0 0 1
vn 0 0 1
vn 0 1 0
vn 0 1 0
vn 0 0 -1
vn 0 0 -1
vn 0 1 0
vn 0 1 0
vn 0 0 -1
vn 0 0 -1
vn 0 -1 0
vn 0 -1 0
vn 0 -1 0
vn 0 -1 0
vn 1 0 0
vn 1 0 0
vn 1 0 0
vn 1 0 0
vn -1 0 0
vn -1 0 0
vn -1 0 0
vn -1 0 0
g Cube Instance_0
f 2/2/2 4/4/4 1/1/1
f 4/4/4 3/3/3 1/1/1
f 10/10/10 6/6/6 9/9/9
f 6/6/6 5/5/5 9/9/9
f 12/12/12 8/8/8 11/11/11
f 8/8/8 7/7/7 11/11/11
f 15/15/15 14/14/14 13/13/13
f 14/14/14 16/16/16 13/13/13
f 19/19/19 18/18/18 17/17/17
f 18/18/18 20/20/20 17/17/17
f 23/23/23 22/22/22 21/21/21
f 22/22/22 24/24/24 21/21/21
