g Cube Instance
v -0.5 -0.5 0.5
v 0.5 -0.5 0.5
v -0.5 0.5 0.5
v 0.5 0.5 0.5
v -0.5 0.5 -0.5
v 0.5 0.5 -0.5
v -0.5 -0.5 -0.5
v 0.5 -0.5 -0.5
v -0.5 0.5 0.5
v 0.5 0.5 0.5
v -0.5 0.5 -0.5
v 0.5 0.5 -0.5
v -0.5 -0.5 -0.5
v 0.5 -0.5 0.5
v 0.5 -0.5 -0.5
v -0.5 -0.5 0.5
v 0.5 -0.5 0.5
v 0.5 0.5 -0.5
v 0.5 -0.5 -0.5
v 0.5 0.5 0.5
v -0.5 -0.5 -0.5
v -0.5 0.5 0.5
v -0.5 -0.5 0.5
v -0.5 0.5 -0.5
vt -0.001000344 0.207
vt 0.2490008 0.207
vt -0.001000344 0.457
vt 0.2490008 0.457
vt -1.258291 -0.001000608
vt -1.258291 0.2490006
vt 0.001000704 0.207
vt -0.2490005 0.207
vt -0.7537089 -0.001000668
vt -0.7537088 0.2490005
vt 0.001000704 0.457
vt -0.2490005 0.457
vt -1.258291 0.001000529
vt -0.7537088 -0.2490006
vt -1.258291 -0.2490007
vt -0.7537089 0.001000588
vt -0.7537088 0.207
vt -1.258291 0.457
vt -1.258291 0.207
vt -0.7537088 0.457
vt 1.258291 0.207
vt 0.7537089 0.457
vt 0.7537089 0.207
vt 1.258291 0.457
vn 0 0 1
vn 0 0 1
vn 0 0 1
vn 0 0 1
vn 0 1 0
vn 0 1 0
vn 0 0 -1
vn 0 0 -1
vn 0 1 0
vn 0 1 0
vn 0 0 -1
vn 0 0 -1
vn 0 -1 0
vn 0 -1 0
vn 0 -1 0
vn 0 -1 0
vn 1 0 0
vn 1 0 0
vn 1 0 0
vn 1 0 0
vn -1 0 0
vn -1 0 0
vn -1 0 0
vn -1 0 0
g Cube Instance_0
f 2/2/2 4/4/4 1/1/1
f 4/4/4 3/3/3 1/1/1
f 10/10/10 6/6/6 9/9/9
f 6/6/6 5/5/5 9/9/9
f 12/12/12 8/8/8 11/11/11
f 8/8/8 7/7/7 11/11/11
f 15/15/15 14/14/14 13/13/13
f 14/14/14 16/16/16 13/13/13
f 19/19/19 18/18/18 17/17/17
f 18/18/18 20/20/20 17/17/17
f 23/23/23 22/22/22 21/21/21
f 22/22/22 24/24/24 21/21/21
